<svg version="1.2" xmlns="http://www.w3.org/2000/svg" viewBox="0 0 60 90" width="60" height="90"><style>.a{fill:#fff}.b{fill:#ff5d01}</style><path fill-rule="evenodd" class="a" d="m45.1 10.7l14.8 48.4q-2.2-1.1-4.4-2.1-2.2-0.9-4.5-1.7-2.3-0.8-4.7-1.4-2.3-0.6-4.7-1l-10-33.5q-0.1-0.4-0.5-0.7-0.3-0.2-0.8-0.2-0.4 0-0.7 0.2-0.4 0.3-0.5 0.7l-9.9 33.5q-2.4 0.4-4.7 1-2.4 0.6-4.7 1.4-2.3 0.8-4.5 1.7-2.3 0.9-4.5 2.1l14.9-48.5c0.9-2.8 1.4-4.2 2.2-5.3q0.3-0.4 0.6-0.7 0.4-0.3 0.7-0.5 0.4-0.3 0.8-0.5 0.4-0.2 0.8-0.4c1.3-0.5 2.7-0.5 5.7-0.5h7.8c3 0 4.5 0 5.7 0.5q0.4 0.2 0.8 0.4 0.4 0.2 0.8 0.5 0.4 0.2 0.7 0.5 0.3 0.3 0.6 0.7c0.8 1.1 1.3 2.5 2.2 5.4z"/><path fill-rule="evenodd" class="b" d="m44.7 61.5c-2.6 2.1-7.6 3.6-13.4 3.6-7.1 0-13.1-2.2-14.7-5.2-0.6 1.7-0.7 3.6-0.7 4.9 0 0-0.4 6.1 3.9 10.3 0-2.2 1.8-4 4-4 3.8 0 3.8 3.3 3.8 6v0.2c0 4.1 2.5 7.6 6.1 9q-0.2-0.4-0.4-0.8-0.2-0.4-0.3-0.9-0.1-0.5-0.1-0.9-0.1-0.5-0.1-0.9c0-3.9 2.3-5.4 5-7 2.1-1.4 4.4-2.8 6.1-5.8q0.3-0.6 0.5-1.2 0.3-0.7 0.4-1.3 0.2-0.7 0.3-1.4 0.1-0.6 0.1-1.3 0-1.8-0.5-3.3z"/></svg>