<svg version="1.2" xmlns="http://www.w3.org/2000/svg" viewBox="0 0 364 420" width="364" height="420"><style>.a{fill:#264de4}.b{fill:#2965f1}.c{fill:#ebebeb}.d{fill:#fff}</style><path class="a" d="m363.7 3.6l-33 370.2-148.6 41.2-148.1-41.1-33-370.3z"/><path class="b" d="m302.4 350.2l28.2-316.3h-148.2v349.6z"/><path class="c" d="m76.7 171.2l4 45.4h101.7v-45.4z"/><path class="c" d="m182.4 79.3h-0.2-113.7l4.1 45.4h109.8z"/><path class="c" d="m182.4 336.4v-47.2h-0.2l-50.6-13.6-3.2-36.3h-24.6-21l6.3 71.3 93.1 25.9z"/><path class="d" d="m238.1 216.6l-5.2 58.9-50.7 13.7v47.2l93.1-25.8 0.7-7.6 10.7-119.6 1.1-12.2 8.2-91.9h-113.8v45.4h64l-4.1 46.5h-59.9v45.4z"/></svg>