<svg width="500" height="500" viewBox="0 0 500 500" xmlns="http://www.w3.org/2000/svg" fill-rule="evenodd" clip-rule="evenodd" stroke-linejoin="round" stroke-miterlimit="2"><path d="M71.944 446.63L32.328 3.305h435.344l-39.616 443.327-178.491 50.064" fill="#e34f26"/><path d="M250.435 458.095l143.81-39.471 33.811-379.621h-177.62" fill="#ef652a"/><g fill-rule="nonzero"><path d="M250.435 203.708h-72.412l-4.789-55.869h77.201V93.856H113.592l.87 14.512 13.641 150.339H250.58l-.145-54.999zm0 141.633h-.87l-60.949-16.253-3.773-43.535h-54.128l6.82 85.908 112.03 30.765h.87V345.34z" fill="#ebebeb"/><path d="M249.565 203.708v54.999h67.478l-6.675 70.38-60.948 16.254v56.885l112.028-30.765 1.016-9.722 12.48-143.664 2.032-14.367H249.565zm0-109.852v53.983h132.2l1.015-11.61 2.903-27.861.87-14.512H249.565z" fill="#fff"/></g></svg>